<svg width="30" height="28" viewBox="0 0 30 28" fill="none" xmlns="http://www.w3.org/2000/svg">
<path d="M28.6876 11.0375C28.6565 10.8977 28.5958 10.7662 28.5095 10.6519C28.4233 10.5376 28.3135 10.4432 28.1876 10.375L25.2126 8.72498C25.0531 8.4016 24.8736 8.08849 24.6751 7.78748L24.7376 4.38748C24.7387 4.24487 24.7104 4.10356 24.6545 3.97236C24.5986 3.84117 24.5162 3.72291 24.4126 3.62498C22.9313 2.28193 21.1795 1.27177 19.2751 0.662477C19.1383 0.619833 18.994 0.606696 18.8518 0.623934C18.7096 0.641173 18.5727 0.688393 18.4501 0.762477L15.5376 2.51248C15.1751 2.49998 14.8251 2.49998 14.4626 2.51248L11.5501 0.762477C11.4274 0.688393 11.2905 0.641173 11.1483 0.623934C11.0061 0.606696 10.8618 0.619833 10.7251 0.662477C8.81814 1.27224 7.0656 2.28709 5.58756 3.63748C5.48298 3.73204 5.39987 3.84791 5.34381 3.97727C5.28775 4.10664 5.26005 4.24651 5.26256 4.38748L5.32506 7.78748C5.12506 8.08748 4.95006 8.39998 4.77506 8.72498L1.80005 10.375C1.67596 10.4439 1.56817 10.5387 1.48404 10.6531C1.39992 10.7674 1.34142 10.8985 1.31255 11.0375C0.887514 12.9896 0.887514 15.0103 1.31255 16.9625C1.3436 17.1023 1.40431 17.2338 1.49057 17.3481C1.57684 17.4623 1.68664 17.5568 1.81255 17.625L4.78756 19.275C4.94704 19.5984 5.12655 19.9115 5.32506 20.2125L5.26256 23.6125C5.26141 23.7551 5.28968 23.8964 5.3456 24.0276C5.40152 24.1588 5.48389 24.277 5.58756 24.375C7.06885 25.718 8.82065 26.7282 10.7251 27.3375C10.8618 27.3801 11.0061 27.3933 11.1483 27.376C11.2905 27.3588 11.4274 27.3116 11.5501 27.2375L14.4626 25.4875H15.5376L18.4626 27.2375C18.6146 27.3375 18.7931 27.3897 18.9751 27.3875C19.0767 27.3831 19.1775 27.3663 19.2751 27.3375C21.182 26.7277 22.9345 25.7129 24.4126 24.3625C24.5171 24.2679 24.6002 24.1521 24.6563 24.0227C24.7124 23.8933 24.7401 23.7534 24.7376 23.6125L24.6751 20.2125C24.8751 19.9125 25.0501 19.6 25.2251 19.275L28.2001 17.625C28.3242 17.5561 28.4319 17.4612 28.5161 17.3469C28.6002 17.2326 28.6587 17.1015 28.6876 16.9625C29.1126 15.0103 29.1126 12.9896 28.6876 11.0375ZM15.0001 19.5C13.9123 19.5 12.8489 19.1774 11.9444 18.5731C11.04 17.9687 10.335 17.1097 9.91872 16.1047C9.50244 15.0997 9.39352 13.9939 9.60574 12.927C9.81796 11.8601 10.3418 10.8801 11.111 10.1109C11.8802 9.3417 12.8602 8.81788 13.9271 8.60566C14.994 8.39344 16.0998 8.50236 17.1048 8.91864C18.1098 9.33492 18.9688 10.0399 19.5731 10.9443C20.1775 11.8488 20.5001 12.9122 20.5001 14C20.5001 15.4587 19.9206 16.8576 18.8891 17.8891C17.8577 18.9205 16.4587 19.5 15.0001 19.5Z" fill="#471515"/>
</svg>
