<svg width="30" height="20" viewBox="0 0 30 20" fill="none" xmlns="http://www.w3.org/2000/svg">
<path d="M29.65 10.0001C29.6515 10.3353 29.5687 10.6656 29.4093 10.9604C29.2498 11.2553 29.0188 11.5054 28.7375 11.6876L17.5875 18.8501C17.2849 19.0462 16.935 19.1568 16.5747 19.1703C16.2144 19.1837 15.8571 19.0995 15.5408 18.9266C15.2244 18.7537 14.9607 18.4985 14.7774 18.188C14.5942 17.8774 14.4984 17.5232 14.5 17.1626V11.8376L3.58749 18.8501C3.28491 19.0462 2.93496 19.1568 2.57467 19.1703C2.21438 19.1837 1.85714 19.0995 1.54077 18.9266C1.2244 18.7537 0.960655 18.4985 0.777442 18.188C0.594229 17.8774 0.498364 17.5232 0.49999 17.1626V2.83763C0.498364 2.47709 0.594229 2.12282 0.777442 1.8123C0.960655 1.50177 1.2244 1.24655 1.54077 1.07364C1.85714 0.900722 2.21438 0.816543 2.57467 0.830009C2.93496 0.843475 3.28491 0.954083 3.58749 1.15013L14.5 8.16263V2.83763C14.4984 2.47709 14.5942 2.12282 14.7774 1.8123C14.9607 1.50177 15.2244 1.24655 15.5408 1.07364C15.8571 0.900722 16.2144 0.816543 16.5747 0.830009C16.935 0.843475 17.2849 0.954083 17.5875 1.15013L28.7375 8.31263C29.0188 8.4949 29.2498 8.74496 29.4093 9.03983C29.5687 9.3347 29.6515 9.66492 29.65 10.0001Z" fill="#471515"/>
</svg>
