<svg width="22" height="26" viewBox="0 0 22 26" fill="none" xmlns="http://www.w3.org/2000/svg">
<path d="M22 13C21.9992 13.3439 21.9104 13.6818 21.7419 13.9816C21.5734 14.2814 21.3309 14.533 21.0375 14.7125L3.03749 25.7C2.73766 25.89 2.3914 25.9939 2.0365 26.0006C1.68159 26.0072 1.33169 25.9162 1.02499 25.7375C0.713758 25.5667 0.454302 25.3152 0.273924 25.0095C0.093547 24.7037 -0.00108208 24.355 -6.18584e-06 24V1.99996C-0.00108208 1.64496 0.093547 1.29623 0.273924 0.990471C0.454302 0.684709 0.713758 0.433218 1.02499 0.26246C1.33169 0.0837584 1.68159 -0.00725329 2.0365 -0.000640198C2.3914 0.00597289 2.73766 0.109956 3.03749 0.29996L21.0375 11.2875C21.3309 11.4669 21.5734 11.7185 21.7419 12.0183C21.9104 12.3181 21.9992 12.6561 22 13Z" fill="#471515"/>
</svg>
