<svg width="28" height="26" viewBox="0 0 28 26" fill="none" xmlns="http://www.w3.org/2000/svg">
<path d="M7 5V1C7 0.734784 7.10536 0.48043 7.29289 0.292893C7.48043 0.105357 7.73478 0 8 0C8.26522 0 8.51957 0.105357 8.70711 0.292893C8.89464 0.48043 9 0.734784 9 1V5C9 5.26522 8.89464 5.51957 8.70711 5.70711C8.51957 5.89464 8.26522 6 8 6C7.73478 6 7.48043 5.89464 7.29289 5.70711C7.10536 5.51957 7 5.26522 7 5ZM12 6C12.2652 6 12.5196 5.89464 12.7071 5.70711C12.8946 5.51957 13 5.26522 13 5V1C13 0.734784 12.8946 0.48043 12.7071 0.292893C12.5196 0.105357 12.2652 0 12 0C11.7348 0 11.4804 0.105357 11.2929 0.292893C11.1054 0.48043 11 0.734784 11 1V5C11 5.26522 11.1054 5.51957 11.2929 5.70711C11.4804 5.89464 11.7348 6 12 6ZM16 6C16.2652 6 16.5196 5.89464 16.7071 5.70711C16.8946 5.51957 17 5.26522 17 5V1C17 0.734784 16.8946 0.48043 16.7071 0.292893C16.5196 0.105357 16.2652 0 16 0C15.7348 0 15.4804 0.105357 15.2929 0.292893C15.1054 0.48043 15 0.734784 15 1V5C15 5.26522 15.1054 5.51957 15.2929 5.70711C15.4804 5.89464 15.7348 6 16 6ZM28 13V14C27.9993 15.2715 27.5142 16.495 26.6434 17.4215C25.7726 18.3481 24.5815 18.908 23.3125 18.9875C22.6237 20.9139 21.4634 22.6372 19.9375 24H23C23.2652 24 23.5196 24.1054 23.7071 24.2929C23.8946 24.4804 24 24.7348 24 25C24 25.2652 23.8946 25.5196 23.7071 25.7071C23.5196 25.8946 23.2652 26 23 26H1C0.734784 26 0.48043 25.8946 0.292893 25.7071C0.105357 25.5196 0 25.2652 0 25C0 24.7348 0.105357 24.4804 0.292893 24.2929C0.48043 24.1054 0.734784 24 1 24H4.0625C2.78816 22.8718 1.76726 21.4865 1.06704 19.9352C0.366819 18.384 0.0031558 16.702 0 15V9C0 8.73478 0.105357 8.48043 0.292893 8.29289C0.48043 8.10536 0.734784 8 1 8H23C24.3261 8 25.5979 8.52678 26.5355 9.46447C27.4732 10.4021 28 11.6739 28 13ZM22 10H2V15C2.00406 16.8772 2.53448 18.7157 3.53101 20.3066C4.52753 21.8975 5.95023 23.1771 7.6375 24H16.3625C17.6229 23.384 18.7402 22.5107 19.6423 21.4364C20.5445 20.362 21.2114 19.1105 21.6 17.7625C21.6139 17.7397 21.6225 17.7141 21.625 17.6875C21.8763 16.8139 22.0025 15.909 22 15V10ZM26 13C25.9993 12.3802 25.8066 11.7758 25.4485 11.27C25.0904 10.7641 24.5844 10.3816 24 10.175V15C24.0008 15.628 23.9506 16.2551 23.85 16.875C24.4705 16.6917 25.015 16.3127 25.4025 15.7946C25.79 15.2765 25.9996 14.647 26 14V13Z" fill="#F2F9FF"/>
</svg>
