<svg width="29" height="26" viewBox="0 0 29 26" fill="none" xmlns="http://www.w3.org/2000/svg">
<path d="M7.5 5V1C7.5 0.734784 7.60536 0.48043 7.79289 0.292893C7.98043 0.105357 8.23478 0 8.5 0C8.76522 0 9.01957 0.105357 9.20711 0.292893C9.39464 0.48043 9.5 0.734784 9.5 1V5C9.5 5.26522 9.39464 5.51957 9.20711 5.70711C9.01957 5.89464 8.76522 6 8.5 6C8.23478 6 7.98043 5.89464 7.79289 5.70711C7.60536 5.51957 7.5 5.26522 7.5 5ZM12.5 6C12.7652 6 13.0196 5.89464 13.2071 5.70711C13.3946 5.51957 13.5 5.26522 13.5 5V1C13.5 0.734784 13.3946 0.48043 13.2071 0.292893C13.0196 0.105357 12.7652 0 12.5 0C12.2348 0 11.9804 0.105357 11.7929 0.292893C11.6054 0.48043 11.5 0.734784 11.5 1V5C11.5 5.26522 11.6054 5.51957 11.7929 5.70711C11.9804 5.89464 12.2348 6 12.5 6ZM16.5 6C16.7652 6 17.0196 5.89464 17.2071 5.70711C17.3946 5.51957 17.5 5.26522 17.5 5V1C17.5 0.734784 17.3946 0.48043 17.2071 0.292893C17.0196 0.105357 16.7652 0 16.5 0C16.2348 0 15.9804 0.105357 15.7929 0.292893C15.6054 0.48043 15.5 0.734784 15.5 1V5C15.5 5.26522 15.6054 5.51957 15.7929 5.70711C15.9804 5.89464 16.2348 6 16.5 6ZM28.5 13V14C28.4993 15.2715 28.0142 16.495 27.1434 17.4215C26.2726 18.3481 25.0815 18.908 23.8125 18.9875C23.1237 20.9139 21.9634 22.6372 20.4375 24H23.5C23.7652 24 24.0196 24.1054 24.2071 24.2929C24.3946 24.4804 24.5 24.7348 24.5 25C24.5 25.2652 24.3946 25.5196 24.2071 25.7071C24.0196 25.8946 23.7652 26 23.5 26H1.5C1.23478 26 0.98043 25.8946 0.792893 25.7071C0.605357 25.5196 0.5 25.2652 0.5 25C0.5 24.7348 0.605357 24.4804 0.792893 24.2929C0.98043 24.1054 1.23478 24 1.5 24H4.5625C3.28816 22.8718 2.26726 21.4865 1.56704 19.9352C0.866819 18.384 0.503156 16.702 0.5 15V9C0.5 8.73478 0.605357 8.48043 0.792893 8.29289C0.98043 8.10536 1.23478 8 1.5 8H23.5C24.8261 8 26.0979 8.52678 27.0355 9.46447C27.9732 10.4021 28.5 11.6739 28.5 13ZM22.5 10H2.5V15C2.50406 16.8772 3.03448 18.7157 4.03101 20.3066C5.02753 21.8975 6.45023 23.1771 8.1375 24H16.8625C18.1229 23.384 19.2402 22.5107 20.1423 21.4364C21.0445 20.362 21.7114 19.1105 22.1 17.7625C22.1139 17.7397 22.1225 17.7141 22.125 17.6875C22.3763 16.8139 22.5025 15.909 22.5 15V10ZM26.5 13C26.4993 12.3802 26.3066 11.7758 25.9485 11.27C25.5904 10.7641 25.0844 10.3816 24.5 10.175V15C24.5008 15.628 24.4506 16.2551 24.35 16.875C24.9705 16.6917 25.515 16.3127 25.9025 15.7946C26.29 15.2765 26.4996 14.647 26.5 14V13Z" fill="#F2FFF5"/>
</svg>
